<mxfile host="Electron" modified="2024-02-19T19:02:34.471Z" agent="Mozilla/5.0 (Windows NT 10.0; Win64; x64) AppleWebKit/537.36 (KHTML, like Gecko) draw.io/22.1.2 Chrome/114.0.5735.289 Electron/25.9.4 Safari/537.36" etag="TbWXMsTQ6w89BoAhoD9n" version="22.1.2" type="device">
  <diagram name="Page-1" id="5IDZgI3WDcxYr6lr7Svi">
    <mxGraphModel dx="780" dy="504" grid="1" gridSize="10" guides="1" tooltips="1" connect="1" arrows="1" fold="1" page="1" pageScale="1" pageWidth="850" pageHeight="1100" math="0" shadow="0">
      <root>
        <mxCell id="0" />
        <mxCell id="1" parent="0" />
        <mxCell id="Lm3MPcxSpBKN_Om6kY3l-35" value="" style="rounded=0;whiteSpace=wrap;html=1;" parent="1" vertex="1">
          <mxGeometry x="640" y="40" width="170" height="260" as="geometry" />
        </mxCell>
        <mxCell id="rsxm70tp_eMSkYaIy4q2-2" value="" style="rounded=0;whiteSpace=wrap;html=1;" parent="1" vertex="1">
          <mxGeometry x="27" y="40" width="222" height="150" as="geometry" />
        </mxCell>
        <mxCell id="rsxm70tp_eMSkYaIy4q2-3" value="SMTP&lt;br&gt;Client" style="pointerEvents=1;shadow=0;dashed=0;html=1;strokeColor=none;fillColor=#4495D1;labelPosition=center;verticalLabelPosition=bottom;verticalAlign=top;align=center;outlineConnect=0;shape=mxgraph.veeam.2d.workstation;rotation=0;" parent="1" vertex="1">
          <mxGeometry x="178" y="90" width="42" height="42" as="geometry" />
        </mxCell>
        <mxCell id="rsxm70tp_eMSkYaIy4q2-4" value="Admin Manages&lt;br&gt;SMTP Client" style="sketch=0;outlineConnect=0;fontColor=#232F3E;gradientColor=none;fillColor=#232F3D;strokeColor=none;dashed=0;verticalLabelPosition=bottom;verticalAlign=top;align=center;html=1;fontSize=12;fontStyle=0;aspect=fixed;pointerEvents=1;shape=mxgraph.aws4.user;rotation=0;" parent="1" vertex="1">
          <mxGeometry x="84" y="90" width="42" height="42" as="geometry" />
        </mxCell>
        <mxCell id="rsxm70tp_eMSkYaIy4q2-5" value="On-Prem" style="text;html=1;strokeColor=none;fillColor=none;align=center;verticalAlign=middle;whiteSpace=wrap;rounded=0;" parent="1" vertex="1">
          <mxGeometry x="101" y="40" width="60" height="30" as="geometry" />
        </mxCell>
        <mxCell id="Lm3MPcxSpBKN_Om6kY3l-1" style="edgeStyle=orthogonalEdgeStyle;rounded=0;orthogonalLoop=1;jettySize=auto;html=1;entryX=0;entryY=0.5;entryDx=0;entryDy=0;entryPerimeter=0;" parent="1" source="rsxm70tp_eMSkYaIy4q2-8" target="rsxm70tp_eMSkYaIy4q2-13" edge="1">
          <mxGeometry relative="1" as="geometry" />
        </mxCell>
        <mxCell id="rsxm70tp_eMSkYaIy4q2-8" value="SES SMTP&lt;br&gt;Interface" style="sketch=0;points=[[0,0,0],[0.25,0,0],[0.5,0,0],[0.75,0,0],[1,0,0],[0,1,0],[0.25,1,0],[0.5,1,0],[0.75,1,0],[1,1,0],[0,0.25,0],[0,0.5,0],[0,0.75,0],[1,0.25,0],[1,0.5,0],[1,0.75,0]];outlineConnect=0;fontColor=#232F3E;fillColor=#DD344C;strokeColor=#ffffff;dashed=0;verticalLabelPosition=bottom;verticalAlign=top;align=center;html=1;fontSize=12;fontStyle=0;aspect=fixed;shape=mxgraph.aws4.resourceIcon;resIcon=mxgraph.aws4.simple_email_service;rotation=0;" parent="1" vertex="1">
          <mxGeometry x="404" y="94" width="42" height="42" as="geometry" />
        </mxCell>
        <mxCell id="rsxm70tp_eMSkYaIy4q2-11" value="" style="endArrow=classic;html=1;rounded=0;entryX=0;entryY=0.5;entryDx=0;entryDy=0;entryPerimeter=0;exitX=1;exitY=0.5;exitDx=0;exitDy=0;" parent="1" source="rsxm70tp_eMSkYaIy4q2-2" target="rsxm70tp_eMSkYaIy4q2-8" edge="1">
          <mxGeometry relative="1" as="geometry">
            <mxPoint x="50" y="-70" as="sourcePoint" />
            <mxPoint x="150" y="-70" as="targetPoint" />
          </mxGeometry>
        </mxCell>
        <mxCell id="rsxm70tp_eMSkYaIy4q2-12" value="" style="shape=message;html=1;outlineConnect=0;" parent="rsxm70tp_eMSkYaIy4q2-11" vertex="1">
          <mxGeometry width="20" height="14" relative="1" as="geometry">
            <mxPoint x="-10" y="-7" as="offset" />
          </mxGeometry>
        </mxCell>
        <mxCell id="2RrcNQgHONycdfRnn22E-6" style="edgeStyle=orthogonalEdgeStyle;rounded=0;orthogonalLoop=1;jettySize=auto;html=1;entryX=1;entryY=0.75;entryDx=0;entryDy=0;entryPerimeter=0;exitX=1;exitY=0.5;exitDx=0;exitDy=0;exitPerimeter=0;" parent="1" source="rsxm70tp_eMSkYaIy4q2-13" target="rsxm70tp_eMSkYaIy4q2-17" edge="1">
          <mxGeometry relative="1" as="geometry">
            <Array as="points">
              <mxPoint x="620" y="115" />
              <mxPoint x="620" y="229" />
            </Array>
          </mxGeometry>
        </mxCell>
        <mxCell id="rsxm70tp_eMSkYaIy4q2-13" value="SES Email Receipt" style="sketch=0;points=[[0,0,0],[0.25,0,0],[0.5,0,0],[0.75,0,0],[1,0,0],[0,1,0],[0.25,1,0],[0.5,1,0],[0.75,1,0],[1,1,0],[0,0.25,0],[0,0.5,0],[0,0.75,0],[1,0.25,0],[1,0.5,0],[1,0.75,0]];outlineConnect=0;fontColor=#232F3E;fillColor=#DD344C;strokeColor=#ffffff;dashed=0;verticalLabelPosition=bottom;verticalAlign=top;align=center;html=1;fontSize=12;fontStyle=0;aspect=fixed;shape=mxgraph.aws4.resourceIcon;resIcon=mxgraph.aws4.simple_email_service;rotation=0;" parent="1" vertex="1">
          <mxGeometry x="520" y="94" width="42" height="42" as="geometry" />
        </mxCell>
        <mxCell id="rsxm70tp_eMSkYaIy4q2-15" value="&lt;div&gt;Amazon SNS&lt;/div&gt;&lt;div&gt;Fallback Topic&lt;br&gt;&lt;/div&gt;" style="sketch=0;points=[[0,0,0],[0.25,0,0],[0.5,0,0],[0.75,0,0],[1,0,0],[0,1,0],[0.25,1,0],[0.5,1,0],[0.75,1,0],[1,1,0],[0,0.25,0],[0,0.5,0],[0,0.75,0],[1,0.25,0],[1,0.5,0],[1,0.75,0]];outlineConnect=0;fontColor=#232F3E;fillColor=#E7157B;strokeColor=#ffffff;dashed=0;verticalLabelPosition=bottom;verticalAlign=top;align=center;html=1;fontSize=12;fontStyle=0;aspect=fixed;shape=mxgraph.aws4.resourceIcon;resIcon=mxgraph.aws4.sns;" parent="1" vertex="1">
          <mxGeometry x="514" y="495" width="42" height="42" as="geometry" />
        </mxCell>
        <mxCell id="Lm3MPcxSpBKN_Om6kY3l-3" style="edgeStyle=orthogonalEdgeStyle;rounded=0;orthogonalLoop=1;jettySize=auto;html=1;entryX=0;entryY=0.5;entryDx=0;entryDy=0;entryPerimeter=0;exitX=0.25;exitY=0;exitDx=0;exitDy=0;exitPerimeter=0;startArrow=classic;startFill=1;endArrow=none;endFill=0;" parent="1" source="rsxm70tp_eMSkYaIy4q2-18" target="2RrcNQgHONycdfRnn22E-1" edge="1">
          <mxGeometry relative="1" as="geometry">
            <mxPoint x="70" y="260" as="sourcePoint" />
            <mxPoint x="250" y="260" as="targetPoint" />
          </mxGeometry>
        </mxCell>
        <mxCell id="2RrcNQgHONycdfRnn22E-2" style="edgeStyle=orthogonalEdgeStyle;rounded=0;orthogonalLoop=1;jettySize=auto;html=1;entryX=1;entryY=0.5;entryDx=0;entryDy=0;entryPerimeter=0;" parent="1" source="rsxm70tp_eMSkYaIy4q2-17" target="2RrcNQgHONycdfRnn22E-1" edge="1">
          <mxGeometry relative="1" as="geometry" />
        </mxCell>
        <mxCell id="rsxm70tp_eMSkYaIy4q2-17" value="&lt;div&gt;Incoming Email&lt;/div&gt;&lt;div&gt;Amazon S3 Bucket&lt;br&gt;&lt;/div&gt;" style="sketch=0;points=[[0,0,0],[0.25,0,0],[0.5,0,0],[0.75,0,0],[1,0,0],[0,1,0],[0.25,1,0],[0.5,1,0],[0.75,1,0],[1,1,0],[0,0.25,0],[0,0.5,0],[0,0.75,0],[1,0.25,0],[1,0.5,0],[1,0.75,0]];outlineConnect=0;fontColor=#232F3E;fillColor=#7AA116;strokeColor=#ffffff;dashed=0;verticalLabelPosition=bottom;verticalAlign=top;align=center;html=1;fontSize=12;fontStyle=0;aspect=fixed;shape=mxgraph.aws4.resourceIcon;resIcon=mxgraph.aws4.s3;rotation=0;" parent="1" vertex="1">
          <mxGeometry x="520" y="198" width="42" height="42" as="geometry" />
        </mxCell>
        <mxCell id="Lm3MPcxSpBKN_Om6kY3l-24" style="edgeStyle=orthogonalEdgeStyle;rounded=0;orthogonalLoop=1;jettySize=auto;html=1;entryX=0;entryY=0.5;entryDx=0;entryDy=0;entryPerimeter=0;" parent="1" source="rsxm70tp_eMSkYaIy4q2-18" target="Lm3MPcxSpBKN_Om6kY3l-23" edge="1">
          <mxGeometry relative="1" as="geometry">
            <Array as="points">
              <mxPoint x="460" y="464" />
              <mxPoint x="460" y="402" />
            </Array>
          </mxGeometry>
        </mxCell>
        <mxCell id="Lm3MPcxSpBKN_Om6kY3l-26" style="edgeStyle=orthogonalEdgeStyle;rounded=0;orthogonalLoop=1;jettySize=auto;html=1;entryX=0;entryY=0.5;entryDx=0;entryDy=0;entryPerimeter=0;" parent="1" source="rsxm70tp_eMSkYaIy4q2-18" target="rsxm70tp_eMSkYaIy4q2-15" edge="1">
          <mxGeometry relative="1" as="geometry">
            <Array as="points">
              <mxPoint x="460" y="464" />
              <mxPoint x="460" y="516" />
            </Array>
          </mxGeometry>
        </mxCell>
        <mxCell id="2RrcNQgHONycdfRnn22E-4" style="edgeStyle=orthogonalEdgeStyle;rounded=0;orthogonalLoop=1;jettySize=auto;html=1;entryX=0;entryY=0.5;entryDx=0;entryDy=0;entryPerimeter=0;" parent="1" source="rsxm70tp_eMSkYaIy4q2-18" target="2RrcNQgHONycdfRnn22E-3" edge="1">
          <mxGeometry relative="1" as="geometry">
            <Array as="points">
              <mxPoint x="93" y="261" />
            </Array>
          </mxGeometry>
        </mxCell>
        <mxCell id="2RrcNQgHONycdfRnn22E-5" style="edgeStyle=orthogonalEdgeStyle;rounded=0;orthogonalLoop=1;jettySize=auto;html=1;entryX=0.5;entryY=0;entryDx=0;entryDy=0;entryPerimeter=0;" parent="1" source="rsxm70tp_eMSkYaIy4q2-18" target="Lm3MPcxSpBKN_Om6kY3l-4" edge="1">
          <mxGeometry relative="1" as="geometry" />
        </mxCell>
        <mxCell id="2RrcNQgHONycdfRnn22E-7" style="edgeStyle=orthogonalEdgeStyle;rounded=0;orthogonalLoop=1;jettySize=auto;html=1;entryX=0;entryY=0.75;entryDx=0;entryDy=0;entryPerimeter=0;exitX=0.75;exitY=0;exitDx=0;exitDy=0;exitPerimeter=0;startArrow=classic;startFill=1;endArrow=none;endFill=0;" parent="1" source="rsxm70tp_eMSkYaIy4q2-18" target="rsxm70tp_eMSkYaIy4q2-17" edge="1">
          <mxGeometry relative="1" as="geometry">
            <mxPoint x="180" y="370" as="sourcePoint" />
            <Array as="points">
              <mxPoint x="104" y="430" />
              <mxPoint x="420" y="430" />
              <mxPoint x="420" y="230" />
            </Array>
          </mxGeometry>
        </mxCell>
        <mxCell id="rsxm70tp_eMSkYaIy4q2-18" value="Object Created&lt;br&gt;Processor" style="sketch=0;points=[[0,0,0],[0.25,0,0],[0.5,0,0],[0.75,0,0],[1,0,0],[0,1,0],[0.25,1,0],[0.5,1,0],[0.75,1,0],[1,1,0],[0,0.25,0],[0,0.5,0],[0,0.75,0],[1,0.25,0],[1,0.5,0],[1,0.75,0]];outlineConnect=0;fontColor=#232F3E;fillColor=#ED7100;strokeColor=#ffffff;dashed=0;verticalLabelPosition=bottom;verticalAlign=top;align=center;html=1;fontSize=12;fontStyle=0;aspect=fixed;shape=mxgraph.aws4.resourceIcon;resIcon=mxgraph.aws4.lambda;" parent="1" vertex="1">
          <mxGeometry x="72" y="443" width="42" height="42" as="geometry" />
        </mxCell>
        <mxCell id="Lm3MPcxSpBKN_Om6kY3l-4" value="SES API" style="sketch=0;points=[[0,0,0],[0.25,0,0],[0.5,0,0],[0.75,0,0],[1,0,0],[0,1,0],[0.25,1,0],[0.5,1,0],[0.75,1,0],[1,1,0],[0,0.25,0],[0,0.5,0],[0,0.75,0],[1,0.25,0],[1,0.5,0],[1,0.75,0]];outlineConnect=0;fontColor=#232F3E;fillColor=#DD344C;strokeColor=#ffffff;dashed=0;verticalLabelPosition=bottom;verticalAlign=top;align=center;html=1;fontSize=12;fontStyle=0;aspect=fixed;shape=mxgraph.aws4.resourceIcon;resIcon=mxgraph.aws4.simple_email_service;rotation=0;" parent="1" vertex="1">
          <mxGeometry x="72" y="575" width="42" height="42" as="geometry" />
        </mxCell>
        <mxCell id="Lm3MPcxSpBKN_Om6kY3l-7" value="" style="rounded=0;whiteSpace=wrap;html=1;" parent="1" vertex="1">
          <mxGeometry x="600" y="523" width="210" height="147" as="geometry" />
        </mxCell>
        <mxCell id="Lm3MPcxSpBKN_Om6kY3l-10" value="On-Prem" style="text;html=1;strokeColor=none;fillColor=none;align=center;verticalAlign=middle;whiteSpace=wrap;rounded=0;" parent="1" vertex="1">
          <mxGeometry x="730" y="523" width="60" height="30" as="geometry" />
        </mxCell>
        <mxCell id="Lm3MPcxSpBKN_Om6kY3l-17" value="" style="endArrow=classic;html=1;rounded=0;exitX=1;exitY=0.5;exitDx=0;exitDy=0;exitPerimeter=0;entryX=0;entryY=0.5;entryDx=0;entryDy=0;" parent="1" source="Lm3MPcxSpBKN_Om6kY3l-4" target="Lm3MPcxSpBKN_Om6kY3l-7" edge="1">
          <mxGeometry relative="1" as="geometry">
            <mxPoint x="158" y="503" as="sourcePoint" />
            <mxPoint x="390" y="618" as="targetPoint" />
          </mxGeometry>
        </mxCell>
        <mxCell id="Lm3MPcxSpBKN_Om6kY3l-18" value="" style="shape=message;html=1;outlineConnect=0;" parent="Lm3MPcxSpBKN_Om6kY3l-17" vertex="1">
          <mxGeometry width="20" height="14" relative="1" as="geometry">
            <mxPoint x="-38" y="-7" as="offset" />
          </mxGeometry>
        </mxCell>
        <mxCell id="Lm3MPcxSpBKN_Om6kY3l-32" style="edgeStyle=orthogonalEdgeStyle;rounded=0;orthogonalLoop=1;jettySize=auto;html=1;" parent="1" source="Lm3MPcxSpBKN_Om6kY3l-19" target="Lm3MPcxSpBKN_Om6kY3l-29" edge="1">
          <mxGeometry relative="1" as="geometry" />
        </mxCell>
        <mxCell id="Lm3MPcxSpBKN_Om6kY3l-19" value="&lt;div&gt;Acme&lt;/div&gt;&lt;div&gt;Mail Server&lt;br&gt;&lt;/div&gt;" style="verticalLabelPosition=bottom;sketch=0;aspect=fixed;html=1;verticalAlign=top;strokeColor=none;align=center;outlineConnect=0;shape=mxgraph.citrix.smtp_server;rotation=0;" parent="1" vertex="1">
          <mxGeometry x="624" y="528" width="42" height="51" as="geometry" />
        </mxCell>
        <mxCell id="Lm3MPcxSpBKN_Om6kY3l-21" value="TO: @anyco domain" style="text;html=1;align=center;verticalAlign=middle;resizable=0;points=[];autosize=1;strokeColor=none;fillColor=none;" parent="1" vertex="1">
          <mxGeometry x="263" y="563" width="130" height="30" as="geometry" />
        </mxCell>
        <mxCell id="Lm3MPcxSpBKN_Om6kY3l-23" value="Attachments&lt;br&gt;Amazon S3 Bucket" style="sketch=0;points=[[0,0,0],[0.25,0,0],[0.5,0,0],[0.75,0,0],[1,0,0],[0,1,0],[0.25,1,0],[0.5,1,0],[0.75,1,0],[1,1,0],[0,0.25,0],[0,0.5,0],[0,0.75,0],[1,0.25,0],[1,0.5,0],[1,0.75,0]];outlineConnect=0;fontColor=#232F3E;fillColor=#7AA116;strokeColor=#ffffff;dashed=0;verticalLabelPosition=bottom;verticalAlign=top;align=center;html=1;fontSize=12;fontStyle=0;aspect=fixed;shape=mxgraph.aws4.resourceIcon;resIcon=mxgraph.aws4.s3;rotation=0;" parent="1" vertex="1">
          <mxGeometry x="514" y="381" width="42" height="42" as="geometry" />
        </mxCell>
        <mxCell id="Lm3MPcxSpBKN_Om6kY3l-29" value="Email Recipients" style="sketch=0;outlineConnect=0;fontColor=#232F3E;gradientColor=none;strokeColor=#232F3E;fillColor=#ffffff;dashed=0;verticalLabelPosition=bottom;verticalAlign=top;align=center;html=1;fontSize=12;fontStyle=0;aspect=fixed;shape=mxgraph.aws4.resourceIcon;resIcon=mxgraph.aws4.users;rotation=0;" parent="1" vertex="1">
          <mxGeometry x="680" y="595" width="42" height="42" as="geometry" />
        </mxCell>
        <mxCell id="Lm3MPcxSpBKN_Om6kY3l-33" value="AWS Identity and&lt;br&gt;Access Management" style="sketch=0;points=[[0,0,0],[0.25,0,0],[0.5,0,0],[0.75,0,0],[1,0,0],[0,1,0],[0.25,1,0],[0.5,1,0],[0.75,1,0],[1,1,0],[0,0.25,0],[0,0.5,0],[0,0.75,0],[1,0.25,0],[1,0.5,0],[1,0.75,0]];outlineConnect=0;fontColor=#232F3E;fillColor=#DD344C;strokeColor=#ffffff;dashed=0;verticalLabelPosition=bottom;verticalAlign=top;align=center;html=1;fontSize=12;fontStyle=0;aspect=fixed;shape=mxgraph.aws4.resourceIcon;resIcon=mxgraph.aws4.identity_and_access_management;rotation=0;" parent="1" vertex="1">
          <mxGeometry x="703" y="80" width="42" height="42" as="geometry" />
        </mxCell>
        <mxCell id="Lm3MPcxSpBKN_Om6kY3l-34" value="Amazon&lt;br&gt;&lt;div&gt;CloudWatch&lt;/div&gt;" style="sketch=0;points=[[0,0,0],[0.25,0,0],[0.5,0,0],[0.75,0,0],[1,0,0],[0,1,0],[0.25,1,0],[0.5,1,0],[0.75,1,0],[1,1,0],[0,0.25,0],[0,0.5,0],[0,0.75,0],[1,0.25,0],[1,0.5,0],[1,0.75,0]];points=[[0,0,0],[0.25,0,0],[0.5,0,0],[0.75,0,0],[1,0,0],[0,1,0],[0.25,1,0],[0.5,1,0],[0.75,1,0],[1,1,0],[0,0.25,0],[0,0.5,0],[0,0.75,0],[1,0.25,0],[1,0.5,0],[1,0.75,0]];outlineConnect=0;fontColor=#232F3E;fillColor=#E7157B;strokeColor=#ffffff;dashed=0;verticalLabelPosition=bottom;verticalAlign=top;align=center;html=1;fontSize=12;fontStyle=0;aspect=fixed;shape=mxgraph.aws4.resourceIcon;resIcon=mxgraph.aws4.cloudwatch_2;rotation=0;" parent="1" vertex="1">
          <mxGeometry x="703" y="184" width="42" height="42" as="geometry" />
        </mxCell>
        <mxCell id="Lm3MPcxSpBKN_Om6kY3l-36" value="Additional AWS Services" style="text;html=1;align=center;verticalAlign=middle;resizable=0;points=[];autosize=1;strokeColor=none;fillColor=none;" parent="1" vertex="1">
          <mxGeometry x="640" y="40" width="160" height="30" as="geometry" />
        </mxCell>
        <mxCell id="Lm3MPcxSpBKN_Om6kY3l-37" value="1" style="ellipse;whiteSpace=wrap;html=1;aspect=fixed;fillColor=#99ccff;rotation=0;" parent="1" vertex="1">
          <mxGeometry x="315" y="80" width="24" height="24" as="geometry" />
        </mxCell>
        <mxCell id="Lm3MPcxSpBKN_Om6kY3l-38" value="3" style="ellipse;whiteSpace=wrap;html=1;aspect=fixed;fillColor=#99ccff;rotation=0;" parent="1" vertex="1">
          <mxGeometry x="573" y="186" width="24" height="24" as="geometry" />
        </mxCell>
        <mxCell id="Lm3MPcxSpBKN_Om6kY3l-39" value="12" style="ellipse;whiteSpace=wrap;html=1;aspect=fixed;fillColor=#99ccff;rotation=0;fontStyle=0" parent="1" vertex="1">
          <mxGeometry x="710" y="567" width="24" height="24" as="geometry" />
        </mxCell>
        <mxCell id="Lm3MPcxSpBKN_Om6kY3l-40" value="2" style="ellipse;whiteSpace=wrap;html=1;aspect=fixed;fillColor=#99ccff;rotation=0;" parent="1" vertex="1">
          <mxGeometry x="463" y="80" width="24" height="24" as="geometry" />
        </mxCell>
        <mxCell id="Lm3MPcxSpBKN_Om6kY3l-41" value="11" style="ellipse;whiteSpace=wrap;html=1;aspect=fixed;fillColor=#99ccff;rotation=0;fontStyle=0" parent="1" vertex="1">
          <mxGeometry x="317" y="609" width="24" height="24" as="geometry" />
        </mxCell>
        <mxCell id="Lm3MPcxSpBKN_Om6kY3l-42" value="8" style="ellipse;whiteSpace=wrap;html=1;aspect=fixed;fillColor=#99ccff;rotation=0;fontStyle=0" parent="1" vertex="1">
          <mxGeometry x="472" y="485" width="24" height="24" as="geometry" />
        </mxCell>
        <mxCell id="Lm3MPcxSpBKN_Om6kY3l-43" value="9" style="ellipse;whiteSpace=wrap;html=1;aspect=fixed;fillColor=#99ccff;rotation=0;fontStyle=0" parent="1" vertex="1">
          <mxGeometry x="114" y="538" width="24" height="24" as="geometry" />
        </mxCell>
        <mxCell id="Lm3MPcxSpBKN_Om6kY3l-44" value="7" style="ellipse;whiteSpace=wrap;html=1;aspect=fixed;fillColor=#99ccff;rotation=0;fontStyle=0" parent="1" vertex="1">
          <mxGeometry x="564" y="385" width="24" height="24" as="geometry" />
        </mxCell>
        <mxCell id="Lm3MPcxSpBKN_Om6kY3l-45" value="4" style="ellipse;whiteSpace=wrap;html=1;aspect=fixed;fillColor=#99ccff;rotation=0;fontStyle=0" parent="1" vertex="1">
          <mxGeometry x="426" y="190" width="24" height="24" as="geometry" />
        </mxCell>
        <mxCell id="Lm3MPcxSpBKN_Om6kY3l-46" value="TO: @(sub) domain-MX-to SES" style="text;html=1;align=center;verticalAlign=middle;resizable=0;points=[];autosize=1;strokeColor=none;fillColor=none;" parent="1" vertex="1">
          <mxGeometry x="244" y="50" width="190" height="30" as="geometry" />
        </mxCell>
        <mxCell id="2RrcNQgHONycdfRnn22E-1" value="SQS" style="sketch=0;points=[[0,0,0],[0.25,0,0],[0.5,0,0],[0.75,0,0],[1,0,0],[0,1,0],[0.25,1,0],[0.5,1,0],[0.75,1,0],[1,1,0],[0,0.25,0],[0,0.5,0],[0,0.75,0],[1,0.25,0],[1,0.5,0],[1,0.75,0]];outlineConnect=0;fontColor=#232F3E;fillColor=#E7157B;strokeColor=#ffffff;dashed=0;verticalLabelPosition=bottom;verticalAlign=top;align=center;html=1;fontSize=12;fontStyle=0;aspect=fixed;shape=mxgraph.aws4.resourceIcon;resIcon=mxgraph.aws4.sqs;" parent="1" vertex="1">
          <mxGeometry x="352" y="198" width="42" height="42" as="geometry" />
        </mxCell>
        <mxCell id="2RrcNQgHONycdfRnn22E-3" value="DLQ" style="sketch=0;points=[[0,0,0],[0.25,0,0],[0.5,0,0],[0.75,0,0],[1,0,0],[0,1,0],[0.25,1,0],[0.5,1,0],[0.75,1,0],[1,1,0],[0,0.25,0],[0,0.5,0],[0,0.75,0],[1,0.25,0],[1,0.5,0],[1,0.75,0]];outlineConnect=0;fontColor=#232F3E;fillColor=#E7157B;strokeColor=#ffffff;dashed=0;verticalLabelPosition=bottom;verticalAlign=top;align=center;html=1;fontSize=12;fontStyle=0;aspect=fixed;shape=mxgraph.aws4.resourceIcon;resIcon=mxgraph.aws4.sqs;" parent="1" vertex="1">
          <mxGeometry x="250" y="240" width="42" height="42" as="geometry" />
        </mxCell>
        <mxCell id="2RrcNQgHONycdfRnn22E-8" value="5" style="ellipse;whiteSpace=wrap;html=1;aspect=fixed;fillColor=#99ccff;rotation=0;fontStyle=0" parent="1" vertex="1">
          <mxGeometry x="258" y="190" width="24" height="24" as="geometry" />
        </mxCell>
        <mxCell id="2RrcNQgHONycdfRnn22E-9" value="6" style="ellipse;whiteSpace=wrap;html=1;aspect=fixed;fillColor=#99ccff;rotation=0;fontStyle=0" parent="1" vertex="1">
          <mxGeometry x="114" y="399" width="24" height="24" as="geometry" />
        </mxCell>
        <mxCell id="2RrcNQgHONycdfRnn22E-10" value="10" style="ellipse;whiteSpace=wrap;html=1;aspect=fixed;fillColor=#99ccff;rotation=0;fontStyle=0" parent="1" vertex="1">
          <mxGeometry x="160" y="226" width="24" height="24" as="geometry" />
        </mxCell>
        <mxCell id="2RrcNQgHONycdfRnn22E-11" value="&lt;div&gt;Amazon SNS&lt;/div&gt;&lt;div&gt;Alarms Topic&lt;br&gt;&lt;/div&gt;" style="sketch=0;points=[[0,0,0],[0.25,0,0],[0.5,0,0],[0.75,0,0],[1,0,0],[0,1,0],[0.25,1,0],[0.5,1,0],[0.75,1,0],[1,1,0],[0,0.25,0],[0,0.5,0],[0,0.75,0],[1,0.25,0],[1,0.5,0],[1,0.75,0]];outlineConnect=0;fontColor=#232F3E;fillColor=#E7157B;strokeColor=#ffffff;dashed=0;verticalLabelPosition=bottom;verticalAlign=top;align=center;html=1;fontSize=12;fontStyle=0;aspect=fixed;shape=mxgraph.aws4.resourceIcon;resIcon=mxgraph.aws4.sns;" parent="1" vertex="1">
          <mxGeometry x="252" y="335" width="42" height="42" as="geometry" />
        </mxCell>
        <mxCell id="2RrcNQgHONycdfRnn22E-12" value="13" style="ellipse;whiteSpace=wrap;html=1;aspect=fixed;fillColor=#99ccff;rotation=0;fontStyle=0" parent="1" vertex="1">
          <mxGeometry x="326" y="354" width="24" height="24" as="geometry" />
        </mxCell>
        <mxCell id="dUqEOYPQ5eX_YiT9C8Gs-1" style="edgeStyle=orthogonalEdgeStyle;rounded=0;orthogonalLoop=1;jettySize=auto;html=1;entryX=1;entryY=0.5;entryDx=0;entryDy=0;entryPerimeter=0;" parent="1" source="2RrcNQgHONycdfRnn22E-3" target="2RrcNQgHONycdfRnn22E-11" edge="1">
          <mxGeometry relative="1" as="geometry">
            <Array as="points">
              <mxPoint x="314" y="260" />
              <mxPoint x="314" y="356" />
            </Array>
          </mxGeometry>
        </mxCell>
        <mxCell id="dUqEOYPQ5eX_YiT9C8Gs-2" style="edgeStyle=orthogonalEdgeStyle;rounded=0;orthogonalLoop=1;jettySize=auto;html=1;entryX=1;entryY=0.75;entryDx=0;entryDy=0;entryPerimeter=0;" parent="1" source="2RrcNQgHONycdfRnn22E-1" target="2RrcNQgHONycdfRnn22E-11" edge="1">
          <mxGeometry relative="1" as="geometry">
            <Array as="points">
              <mxPoint x="323" y="230" />
              <mxPoint x="323" y="367" />
            </Array>
          </mxGeometry>
        </mxCell>
      </root>
    </mxGraphModel>
  </diagram>
</mxfile>
